<?xml version="1.0" encoding="utf-8"?>
<!-- Generator: Adobe Illustrator 16.0.0, SVG Export Plug-In . SVG Version: 6.00 Build 0)  -->
<!DOCTYPE svg PUBLIC "-//W3C//DTD SVG 1.1//EN" "http://www.w3.org/Graphics/SVG/1.1/DTD/svg11.dtd">
<svg version="1.1" id="Layer_1" xmlns="http://www.w3.org/2000/svg" xmlns:xlink="http://www.w3.org/1999/xlink" x="0px" y="0px"
	 width="595.28px" height="841.89px" viewBox="0 0 595.28 841.89" enable-background="new 0 0 595.28 841.89" xml:space="preserve">
<line fill="none" stroke="#000000" stroke-width="4" stroke-miterlimit="10" x1="262.67" y1="242.002" x2="262.67" y2="264.67"/>
<path fill="none" stroke="#000000" stroke-width="4" stroke-miterlimit="10" d="M237,182.668"/>
<path fill="none" stroke="#000000" stroke-width="4" stroke-miterlimit="10" d="M237,264.67"/>
<path fill="none" stroke="#000000" stroke-width="4" stroke-miterlimit="10" d="M357.05,108.748"/>
<g>
	<g>
		<path d="M409.997,167.752c-17.65,0-35.3,0-52.95,0c0.833,0.833,1.667,1.667,2.5,2.5c0-7.501,0-15.003,0-22.505
			c-0.833,0.833-1.667,1.667-2.5,2.5c17.65,0,35.3,0,52.95,0c-0.833-0.833-1.667-1.667-2.5-2.5c0,7.501,0,15.003,0,22.505
			c0,3.224,5,3.224,5,0c0-7.501,0-15.003,0-22.505c0-1.363-1.138-2.5-2.5-2.5c-17.65,0-35.3,0-52.95,0c-1.363,0-2.5,1.137-2.5,2.5
			c0,7.501,0,15.003,0,22.505c0,1.363,1.137,2.5,2.5,2.5c17.65,0,35.3,0,52.95,0C413.222,172.752,413.222,167.752,409.997,167.752z"
			/>
	</g>
</g>
<path fill="none" stroke="#000000" stroke-width="4" stroke-miterlimit="10" d="M365,128.748"/>
<path fill="none" stroke="#000000" stroke-width="4" stroke-miterlimit="10" d="M262.92,128.748"/>
<path fill="none" stroke="#000000" stroke-width="4" stroke-miterlimit="10" d="M357.05,124.248"/>
<g>
	<g>
		<path d="M234.5,182.668c0,24.658,0,49.317,0,73.975c0,3.15,0.057,6.307-0.048,9.456c-0.36,10.798-9.794,16.071-19.375,16.071
			c-7.411,0-14.823,0-22.234,0c-8.234,0-15.574-0.4-20.54-8.282c-4.432-7.034-2.47-19.614-2.47-27.487c0-15.387,0-30.774,0-46.162
			c0-14.101,0-28.201,0-42.302c0-3.216,0-6.433,0-9.65c0-9.214,7.087-17.04,16.52-17.04c11.424,0,22.848,0,34.272,0
			c11.151,0,22.521,0.656,33.652-0.091c4.449-0.299,8.092-3.416,10.016-7.252c2.293-4.574,0.317-12.656,7.943-12.656
			c3.571,0,7.142,0,10.713,0c15.381,0,30.761,0,46.142,0c5.322,0,10.645,0,15.968,0c1.382,0,2.6-0.015,3.986,0.268
			c7.092,1.447,4.425,10.688,8.319,15.113c4.294,4.878,9.678,4.62,15.538,4.62c7.716,0,15.432,0,23.147,0c4.761,0,9.522,0,14.283,0
			c9.621,0,17,7.727,17,17.203c0,9.674,0,19.348,0,29.022c0,27.926,0,55.853,0,83.779c0,4.773-0.361,9.063-2.986,13.341
			c-3.466,5.647-9.719,7.578-15.938,7.578c-10.336,0-20.672,0-31.008,0c-29.14,0-58.279,0-87.419,0c-2.55,0-5.099,0-7.648,0
			c-9.794,0-17.163-8.235-17.163-17.816c0-11.696,0-23.392,0-35.087c0-9.001,1.269-18.136,5.678-26.105
			c4.396-7.946,12.105-12.82,20.606-15.42c19.885-6.083,45.899-3.263,57.244,16.09c11.929,20.349,5.821,48.29-15.045,59.785
			c-10.381,5.719-24.03,6.239-34.369,0.272c-9.803-5.657-14.167-17.29-14.687-28.072c-0.665-13.813,9.776-28.229,24.196-28.647
			c3.217-0.093,3.227-5.094,0-5c-10.313,0.299-18.756,6.237-24.188,14.771c-5.895,9.264-6.002,20.828-2.998,31.074
			c6.166,21.027,28.003,29.203,47.906,22.792c21.513-6.93,31.904-28.529,29.563-49.949c-2.115-19.355-14.176-34.591-33.313-39.208
			c-17.638-4.255-41.294-1.384-54.323,12.296c-10.342,10.86-11.27,26.292-11.27,40.458c0,7.592,0,15.185,0,22.776
			c0,6.194-0.22,11.892,2.402,17.717c5.155,11.457,16.686,12.273,27.41,12.273c29.14,0,58.279,0,87.419,0
			c10.336,0,20.672,0,31.008,0c13.18,0,23.925-9.195,23.925-22.898c0-25.25,0-50.5,0-75.75c0-12.196,0-24.392,0-36.588
			c0-3.45,0.026-6.717-0.846-10.114c-2.385-9.297-11.864-15.573-21.185-15.573c-12.698,0-25.396,0-38.093,0c-1.68,0-3.359,0-5.039,0
			c-2.837,0-5.048-1.417-6.598-3.712c-1.731-2.565-0.751-6.155-2.15-8.944c-2.817-5.619-7.873-7.344-13.729-7.344
			c-24.17,0-48.34,0-72.51,0c-3.674,0-7.529,1.972-9.498,5.125c-3.418,5.475-1.055,14.29-9.767,14.875c-3.435,0.23-6.964,0-10.404,0
			c-15.259,0-30.519,0-45.778,0c-3.468,0-6.936,0-10.404,0c-10.154,0-18.57,7.161-20.991,16.843
			c-0.739,2.957-0.509,6.22-0.509,9.253c0,5.063,0,10.126,0,15.189c0,29.368,0,58.735,0,88.103c0,11.301,0.3,22.237,11.39,28.898
			c5.5,3.304,12.185,2.635,18.32,2.635c7.211,0,14.422,0,21.633,0c12.993,0,23.324-9.376,23.324-22.75c0-7.799,0-15.598,0-23.397
			c0-19.451,0-38.902,0-58.354C239.5,179.444,234.5,179.444,234.5,182.668L234.5,182.668z"/>
	</g>
</g>
<g>
	<g>
		<path d="M409.997,116.248c-12.332,0-24.665,0-36.997,0c-1.363,0-2.5,1.137-2.5,2.5c0,3.333,0,6.667,0,10
			c0,1.363,1.137,2.5,2.5,2.5c12.332,0,24.665,0,36.997,0c1.362,0,2.5-1.137,2.5-2.5c0-3.333,0-6.667,0-10c0-3.224-5-3.224-5,0
			c0,3.333,0,6.667,0,10c0.833-0.833,1.667-1.667,2.5-2.5c-12.332,0-24.665,0-36.997,0c0.833,0.833,1.667,1.667,2.5,2.5
			c0-3.333,0-6.667,0-10c-0.833,0.833-1.667,1.667-2.5,2.5c12.332,0,24.665,0,36.997,0
			C413.222,121.248,413.222,116.248,409.997,116.248z"/>
	</g>
</g>
<rect x="186.333" y="144" fill="none" width="72.333" height="34.333"/>
<text transform="matrix(1 0 0 1 186.3335 172.0073)" fill="#7E1328" font-family="'ComicSansMS'" font-size="36">PM</text>
</svg>
